<mxfile host="app.diagrams.net" modified="2022-01-17T22:48:47.207Z" agent="5.0 (Windows NT 10.0; Win64; x64) AppleWebKit/537.36 (KHTML, like Gecko) Chrome/97.0.4692.71 Safari/537.36" etag="F-tpSPcehXRXRq7eUp0R" version="16.2.7" type="github">
  <diagram id="d2eCaFcVuYxanek6zr8M" name="Page-1">
    <mxGraphModel dx="1322" dy="1338" grid="1" gridSize="10" guides="1" tooltips="1" connect="1" arrows="1" fold="1" page="1" pageScale="1" pageWidth="4000" pageHeight="4000" math="1" shadow="0">
      <root>
        <mxCell id="0" />
        <mxCell id="1" parent="0" />
        <mxCell id="bO9a51jHY94Dz1iOjvRc-1" value="&lt;b style=&quot;font-weight: normal&quot; id=&quot;docs-internal-guid-739d0454-7fff-edc9-39ca-1b6d2b2bdff0&quot;&gt;&lt;img width=&quot;539px;&quot; height=&quot;259px;&quot; src=&quot;https://lh5.googleusercontent.com/fSq83Wf-xECsAVLPTcBm9cTb10Oud0Yiu1c1ac1YYcypcx5YZUzhEegicI6wBQ-Ih1QaErSd10Zf3YYSE_Y8k1viF-EJGyk9COIc4Mhwvb5aqfarL7e0U3xY_8Mxh0B6t_S6csCk&quot;&gt;&lt;/b&gt;" style="text;whiteSpace=wrap;html=1;strokeColor=default;" vertex="1" parent="1">
          <mxGeometry x="2270" y="1390" width="550" height="280" as="geometry" />
        </mxCell>
        <mxCell id="bO9a51jHY94Dz1iOjvRc-2" value="" style="whiteSpace=wrap;html=1;aspect=fixed;strokeColor=default;" vertex="1" parent="1">
          <mxGeometry x="3140" y="1080" width="590" height="590" as="geometry" />
        </mxCell>
        <mxCell id="bO9a51jHY94Dz1iOjvRc-3" value="" style="endArrow=classic;html=1;rounded=0;fontSize=30;strokeWidth=3;" edge="1" parent="1">
          <mxGeometry width="50" height="50" relative="1" as="geometry">
            <mxPoint x="2840" y="1529.17" as="sourcePoint" />
            <mxPoint x="3130" y="1529.17" as="targetPoint" />
          </mxGeometry>
        </mxCell>
        <mxCell id="bO9a51jHY94Dz1iOjvRc-4" value="Predictions" style="text;html=1;align=center;verticalAlign=middle;resizable=0;points=[];autosize=1;strokeColor=none;fillColor=none;fontSize=30;" vertex="1" parent="1">
          <mxGeometry x="3140" y="1030" width="160" height="40" as="geometry" />
        </mxCell>
        <mxCell id="bO9a51jHY94Dz1iOjvRc-5" value="RoboFISH network" style="text;html=1;align=center;verticalAlign=middle;resizable=0;points=[];autosize=1;strokeColor=none;fillColor=none;fontSize=30;" vertex="1" parent="1">
          <mxGeometry x="2270" y="1350" width="270" height="40" as="geometry" />
        </mxCell>
        <mxCell id="bO9a51jHY94Dz1iOjvRc-9" value="L = L&lt;sub&gt;count&lt;/sub&gt; + L&lt;sub&gt;location&lt;/sub&gt; + L&lt;sub&gt;barcode&lt;/sub&gt;" style="rounded=1;whiteSpace=wrap;html=1;fontSize=30;strokeColor=default;" vertex="1" parent="1">
          <mxGeometry x="1800" y="1080" width="510" height="120" as="geometry" />
        </mxCell>
        <mxCell id="bO9a51jHY94Dz1iOjvRc-10" value="Loss" style="text;html=1;align=center;verticalAlign=middle;resizable=0;points=[];autosize=1;strokeColor=none;fillColor=none;fontSize=30;" vertex="1" parent="1">
          <mxGeometry x="1800" y="1030" width="80" height="40" as="geometry" />
        </mxCell>
        <mxCell id="bO9a51jHY94Dz1iOjvRc-11" value="" style="endArrow=classic;html=1;rounded=0;fontSize=30;strokeWidth=3;" edge="1" parent="1">
          <mxGeometry width="50" height="50" relative="1" as="geometry">
            <mxPoint x="3120" y="1140" as="sourcePoint" />
            <mxPoint x="2330" y="1140" as="targetPoint" />
          </mxGeometry>
        </mxCell>
        <mxCell id="bO9a51jHY94Dz1iOjvRc-13" value="" style="curved=1;endArrow=classic;html=1;rounded=0;fontSize=30;strokeWidth=3;" edge="1" parent="1">
          <mxGeometry width="50" height="50" relative="1" as="geometry">
            <mxPoint x="2040" y="1210" as="sourcePoint" />
            <mxPoint x="2250" y="1420" as="targetPoint" />
            <Array as="points">
              <mxPoint x="2030" y="1360" />
            </Array>
          </mxGeometry>
        </mxCell>
        <mxCell id="bO9a51jHY94Dz1iOjvRc-14" value="" style="endArrow=classic;html=1;rounded=0;fontSize=30;strokeWidth=3;" edge="1" parent="1">
          <mxGeometry width="50" height="50" relative="1" as="geometry">
            <mxPoint x="1960" y="1529.17" as="sourcePoint" />
            <mxPoint x="2250" y="1529.17" as="targetPoint" />
          </mxGeometry>
        </mxCell>
        <mxCell id="bO9a51jHY94Dz1iOjvRc-15" value="Image sequence" style="text;html=1;align=center;verticalAlign=middle;resizable=0;points=[];autosize=1;strokeColor=none;fillColor=none;fontSize=30;" vertex="1" parent="1">
          <mxGeometry x="1520" y="1350" width="240" height="40" as="geometry" />
        </mxCell>
        <mxCell id="bO9a51jHY94Dz1iOjvRc-16" value="Modify weights" style="text;html=1;align=center;verticalAlign=middle;resizable=0;points=[];autosize=1;strokeColor=none;fillColor=none;fontSize=30;" vertex="1" parent="1">
          <mxGeometry x="2050" y="1220" width="210" height="40" as="geometry" />
        </mxCell>
        <mxCell id="bO9a51jHY94Dz1iOjvRc-19" value="" style="shape=image;verticalLabelPosition=bottom;labelBackgroundColor=default;verticalAlign=top;aspect=fixed;imageAspect=0;image=data:image/png,iVBORw0KGgoAAAANSUhEUgAAAJMAAACPCAYAAAD+8en1AAAACXBIWXMAABYlAAAWJQFJUiTwAABkf0lEQVR4Xu29yY+m2XXeGXNGDlXFIlkyJVIiLRVYItwNW7a8ELTwxkYbamvhYe2FFkZD3V5o2/+CgNbChrQ0YLgXQsNAw4NWXkgQLBgwLFmWBXphSbRI0OYgF4uZlZkx93me33necyMyM5TFqnKxgfqyvoqIb3jfO5zhOc85996dnY8fH4/AxyPw8Qh8v43A7vdDg373d3/33re+9a0/8+jRo/u7u27SZT2vum1+YW9v72p/f397rT6n3/1ef8cfv/l7/7239FPf2b28vNyta+rlK/3e18rPKz36HusQ6Z56fbuPPnZxcbGvn0t79ftefS7X0438+/I53cL37+/52v3++to6Hv7Mjed6jfx+8/trH/J7rrN+J9/L+Oczl93Wy+rS2ac+9alv/9RP/dT5zYsePO8u/6Nf+43f+I3P/N7v/d7f/cY3vvGTF5eXr9QY10Ts7ZTw1IzvXl2cn1/VxF8eHB5e1u97Nfl76ly9L4HQe54rTZ0E4PLyYvfs7Hx3f3/v6vDw6Oru3btXR0dHlwcHB/XeVX1X36+P1l08gZdXu6dnp3vn9dzRfS24B5vwlrD0/O3Wvao99ffZ+dnuZf3U9SQ4ujOCda62qTF7+3v7O/U/blOvlBhIiHf0/fPzc/20RtT79cPtv6oPq0Vq1M5lveo+HBzWbS6vzqtPJ6cn1b79q/2DfUmvvycZrevp/v5T9/D41Oc0PpLpo6M77n+1Rxd3G6rPNVgaCDcD5ann2elZvX9Oo3d3LqpNF/XzrD57Ut/7Lz/5l3/yH/3LX/u1L/+vP/Mz1wTqIxemr3zlK7u/9Eu/9OO//du//de/+tWvvnlxefWgenCwt7e/e3BYnd/duzo9PVVnLzUwmgAGS0qyK4u1c3BwaEvB3xKmy52zs7PdGryd4+PjnVdeeXWnBKoG9LCFibFrw+aBf/r0ye7JyUldYm/n8PCwPnskYfI1e+L9OX3xvASp2rRzWoMuq9b3drt03/6chN3tkyxF4HWt+r4+5+vqkvqcHvpcCY9/tzDVROu9asvOxWUJYH2n2ujX9qtvvq+Faa+vdenXJCh8d8/3LcVw/9UvjaHaqTboWmrrWHOP4ZXGQWOu92o8LdD1vbrsxZN677vHd++efOELX/i/6sbfWg3PRy5M1Zj96sCnq7GfrJ+v37lztKeBkiBkwEqodk6entTknfJ6DaYGW5NZGuTByoCUEHrQJET67J07d3bu3bvXwnTk7zFZTJ4G7OLi0p89Pr7r62jy9L0IqD6jgdf9JQQRYgmeBAJBKLOCsG0/IxS6vtqk+zHRTHoEqC0q96vJkwDs7R7UtWURd3bOq496lGX2dfJF26RdCSzCqIcmH+uHBdS1Mh49brtl6P16WasooIVP7ZdVbQEr637aynogC1s3uTqSEpbl/2Jd+94qSG7fzRc+ir+rkwf1PKznnjp+cHhUk4tV0Awc3zkuYHPlidTrGjwJhQZLgzaTy0RIuA5LACMUEgxf19rsKdwmXwNfSufrRsD4Pp+PZdH1njzB0mCp9vx5/R3tjjDpmhEq/cp1gU98hvtLGBGo/M377o+sT33Uwm8LhAVTn3rSu99qEwrGPa4sGIwNwhSl0mf0mn7qNY2dBdcCyHewlrhZ9ZH+N0Zk8I7r/TtqzvefMMnMCwOUIMVlMemCGDWw1WJNrDqpCddEo2FX9bc09twCos/jVsb1RZhizfR9TSQDuNcafAG+WK6LcO6XdTryvSMM7UbLSp1We7AsciUR6FWYMiHC9ru7mjTarPapDQX72vVhJTaX24JIfySo3AeLi9tupE6f6/XSw03wy2q4PRJo/c51UKy0Ne/J8kURcX0ay1g2tU8C2iKjQcDyyq+Xydze2WTqI7dM0gGB7BrQUlThWAAkGlJWR5bmLpqkgYw2qwcFri1AjaGsLNKw/K3PRvPS9QieJrW9krU5GhwXISt49+6xrx83hUVBU588QavVrgL7HlAmSZYy1ojhjSUR7jm8LPxTbgt3JyEaYQpOKlCjEHNTELn7O+WSCvONtbQrlFssBSpXJ2FRu8Bicv9xpVjCscxIh9oZzBRp0HfBfaf+DtYa93felq5evyyreRJst0lS/fKRC5MAX3XAEZKjJpn5mmhNEhbDUV1booNNWDQJcRUV1C1gl99jadDKO8ZAmoy4Jn1Gg7ezc1rX5PpEbXGVugZuDaHTUKG1wk7BPHFdidLixtQmBA/BkiDJ0jIJeIhxVxH6usdu4SJhxrKIZasdXByVhTwyXpKlxDLLDbr/DcAlTHqobeoHYzf3Ud/jCiVoUlb9Hbem78Yqqc3q99OnTxH6DgZ0zxLKy/remRX/xuMjF6aKCi5/4Rd+QRHbrqKVq7s1bQLZNt/x2ZrQVdOYiGCTWKgMXkdjvo5+FwDXUwMeU673NFhMKpNwfn7iCcM9CrcxPLimwUZoNhprmqDaHa3WewghLjcCU1FpQVcAetws1wFfSUjc7juAbN37oN2TLKStYL1+p9oWt03bsbBRvgh6rGYsMgEA4yg3Las0lux8a4deQ/FkQXGDtrjyEGpD0TV6ikT7vhMmBvLw3Qpdz+/du1+urDrS7gswLe3GOklLE1orktvZ0XPHnddkBCzKEkEFgHnyjHDEjWYig4U0rwgFAnLv3qXvKzcW4dUkAGx3HU2ump3BRbPBXXoIM+U7dyqYCEhGGIT9ZJFMa2wU5hbZSaGqDRKiO+Xm5eqxUtAhWEYmPIqCNR9Qrs8RTCB4ilrVP431u+++W8/HmzXD2iPwEVCPj4R2Czb2KqLbSNpNpj5yy9Sa+rgafupJL4FBMMbNIFRYqrMzXAcgk9AZYUGY8PWt5TUBGvxomj6z4gommrHQIA9e0mCe+Xq6b7CFJn7lh4KRVg3dQvtWhIkcZYGYZAQzFMFO80iEfavC53e5MuEmW8ymLSxMjrSqzzWvaqPak0gNd0h/E5QE78X66HWNo5RFFi3Klf4wB2r3ii/9Z9nYkOXT++8LYSqNOqjnOWHxaNVqmdRkAdZo47NWFi1Fs3hq8GWh9JRAESUOKZhJ1bXNCENCerLRZjDT0+K4EqnFEjHwQzEIuowgxc1NlBb8FWESPItwy7UWJchkmoSe667uHF4p/UzIHqzTmHOV7P58xmr6hUBLIOXOz84qQhTIbs4MJSEwCPVRXLEtqiHaCx7fF8L0Yz/2Y4/FuP7Ij/zJ1d17D3aPauJjicAecDu4GDHI59Ym/a6HXMdwQgjRvXsSINzCK688sDAFdMNeo4nRyidPHjfgBMPonhpoTQSfRRNDOka4hEFkraTh0lbhnLhVxhzeJ48Ix1gm3CHCyWQddNAhyyMwrn4cFoCWVbKba9wUYdbPJ0+eWBn0YOwYNywVUa76kr9liYv136l86M53vvPOzte+9jVHcXBNCGbwHhYbXKU+1uvP+ri674ciTH/4h39YMLrcrFGrQxfdR0/bZEVvNQFXJQAXT54+Pfyd3/mdL/3gD/3QK6+++uruoQRDtL/DepF3CoGJOk4rLxXXAgAGlJMmmNQFJJ1oBFze/fv3+jMIpYVx0cLKeXlgg4cYdLkJrFgEqLKdnm/9VOgO1immq0NxvVf0K8JU7joCY36pI6t1kuIp7DKI4Ak6Grc4IrN7E0fYrHUTusN6J+ksJQLLYVGI9iJY4ZyidID2/VK6+zuvvfaJEqjv7PzJn/yJxzTkZdy+hEvPSox2ZGfy7MMH4L/8y7/8137xF3/xr1bv36hBv6txRIhkwK2pSqxeVkL3ojTsrNp0vzryP9VEfg5SD+6l3vdPD4iArNtO9CQ2XI8MFmkBoq08+06bpmIZhk7YrdBdA59opRK3lfu6HtXEzGMZNZia3BFay1YPfnXIuItcFqG7hUxseeGjXMu8mbBOPXkPbsoWpfp5XH1JlAhRC7+WaHFwD+A9fkeflcDopQhQrKf6HapAgp5IVEP61ltv7Xzxi190u2V9PB7VJ6VwpLwbRmyKQEpUjS7G90MG4L//+79//Cu/8is/85u/+Zt/pwbojerXHTjs7SE77imQSBVWuKiO75cbqYQTeEmyJE2NBktjZyKIWjJINtnNI4UDCt+DBZvBXfGRv3eH0FuWLwJljWyBilWA8xGNQGI3obmExfeyyy1KQ7Moy5LAQcGCJsNWi0BBH5DlSegfVy0XGWG6q9SR8Ysw3KlxlWgNqAuusxqFsdRgriSHg3UiSABxrGbGUJbp9ddfL4H68Q5AcMn+bGNLSGApsJPrGXvJ4Ydrmcq6HFUZyY/90R/90Q/WAMLFt8XoAVDJSNohOTpUp+Wr0WqESV/zwLRbUbP9nrTGfptH6ILDAwi7NV+X33WJJEdJNZSV0ISufE7zSbq2uCdNmgFqR1DCKA8fvVu45KmthK6nezscL0EKX6XrhgPS+6eF8WSdpOUrkSjqQ648LlcCmf4cH4k6IPN/cvLU97p//35biBEmQPoEDrDnCGVAOoCbsUp0nHbrdV377bffdjsiYPopQUrwoc9hgbFufY+6xYfv5lRrdEeCpJvCkkbaJzqIP1d76DCf0wMtnojGbTYoJaWSchC5hwu5ntKc8zPINbQP7Vc2PeF+JkpabkGp2jsLQuemNMCaYCdXy1qZcugB1OceFziXMMtCSENlJdBU2hzspBDeCemLs+LVK+NuDFQ6ZdITOiPEagTJNVElCLYEdTn1KyA+lkDCymQiKOmnxi0CpPYF+MtSyooCG7BGYsD1PfU5Ap/P67shXzd8qHE1EGesYpks6Q1bENN5fNAAXGBbJSU9wG1mavIkE+qYiEcqAibROiYZZlmjukYkDGDY8HYZxqz1T2kYTUYDT+F8UhmDEYPFsCglhJflmmrCkVMmWhO6W7jShJ/No4A1GqsBlvXbr7afSZD0emuq2u5UhjW4xLRTFcIfe05h1PXqH5b30m7S/e05KDrU/wLsZaXMKzVJO+4afIQ90O+4Z8aUagjwJpYEwD7jEFokmMoMu4lMUkkIoFwpOVFZ1JTc3BAmfX44jw9LmOom5RkOdhWGM2AuLlyY2QKYrjOaDtisdibdk9qBgtyAGezmhjQ5tgitoVsfjMtl/RhAJ7T9EmaZa8pydZpGWEY45qk0lLSF5kZcktqCwDEpCYUj2BayznHFLcQixMpuXE1NSMLwMPO6pvvfZKKix6flyhJFShDP2hKoXQoscEuCAnBgGZ9Y8gHbUBRitLH2CKQeUYrDQyWEXSC3CWHej+CEepE1FN1ASqXuZmvt8VS9k8qUP9wSlOqAhGkvSUfdmsALA5gB1++4upRAUJ8UC4I0jEAEQ2VQTBC2+4sWAjR1DSwNAwaxyCNEIL/rfWtnCY8ewWgINu427XF0Vm5TD5fiNg60i9FAW2W4vie3lOXgCs1PXVaEO2Ow/m1XKDyotEu57ADp9ANsNG7Vw1MdJ/qCQsn4xjrl71j11Ctxf76/VWY0FoXKGHeqdiGYsnIap614ruqIXfJw7fGBurnqSMEOzK4nRJLk2Z6EZ7BKK02DRSY4GqXJ4XMA0ypB3kLUrfXPxBK8M7iJgcjAg92mwlHtdAFdC1MmLgPIfZUXw40ZOxQ1ENxpRTHeaSHeHNfktSZRjTtKe1Ih4clsmsMCVf8uz5O+GMsaFy9jsFaKTtKaOi21bS2eCx4FRshda3yoggBME5AAssG2aWPyoa3VWGusvUZemPiZGfhAhUk3ca/6YU7FVmCEQyZdj5Bn0ipzOA1oo7HnhWtcp9zXWt3WCBQlGOFedC3cA5l/ADgRja4v3sRRTVkOp1jKjYhZlrW5U0lPuRlxQhpgFgO0wNW1lGk/PT1vtysupnDGVu6BKw8YdsDQCqV227L1GDhgaDyysul2hfVP31srEmLtcJWaz3HBiYLPz1FgyNqjTUgYU0YLIK0/IDaDKbeIstM5I0zgR7wKZKECFwnTike3uehPrn+/39+vmT6A7N4C7IJhmNgIVATJlqUz59JYNKjNuwB1W550JkIEGI1VGhCa13xdg1XSC8INR8dUFFjwukpBFlGYw9isJt8JY6UwVJVQAPzsDrjBgtPckr5jl+qqyA6fNXFbUECYH7oBDMR3Vktppai+H9qdxG1NwR3jACmK1cDaYeWm2hTlhIpY85AaAxbN6P3mtarNEbhY9ER2UXhBEVw+37nt8UFbJrc5N7Q2dYdlUplMJn4tMBvhSNSJJZP2y5p60C1oXUS2VVB2tLiQsSNgiX6YGNwaBWZHxxScKeUhYXJlgas4mXh3oiZcVsvvOzWjgWdhgYCpQPwmpOKtqqhNbtGaXpMrq0FODPcdDEbtFclsPcLoR9gPSpjAUADnPLEY9jB13Skrnohr7iHLpzFTgJGaKuaEKBBMJuFQwhe3vAUZ+/ISuD5oEqxZu7goTDVnm+ZNvj5oYZJaKZHUA1UaUzd99dVX/Hc6oZ9372pxQ7LzlI/IrdgwOTQlegud78FO8rI7DwgvAajVFplY4aCUoOztPa1rICAkf1UgV1WX5dKO71akVJMtq+QSlRKuUBQSBLUxCwtkmZTLO5ObKwE7rmK1+6f3vWIGhhseJjjv6EyZ+CphsfUAIKfaQO6TVAU8kBWpK0X13kEtDlhrrzXJcslUNCDoQ5uQl0QwpHSw5nGTWB3ohChsLGLGa7XYwXW6vvp0cvIY3Kp2arY62qmfWpT5jKn6wITpP//BH3y6VuV+6Yc++9nX/vyf/wuwJzXHsiYqxiL3AwnGIK6cElHPCFMvEuy1aeZsWoA8CIrEOtKQGAFiQ1iCHzQgwjmkOi7bAt3dBE0MuInQroVKREWKA+3knlQBaGGi3jO3KNxTn0mFJUCafmkC0099Nu2Oq5D1kmBO/RCKQGqnxqBdNngPV6X+yCICuEeYkuzWffUZueg//uOvOmn7+PG7bYnC0dm2Y1lkoSTEcpn2HlUhocK7UhLdEzcJtbFhWZcd27ZpKfRJPd+bMP3Wv/k3rzx69PCVkt7j6tRhscpeQyJOrW54VK8f1OtasXrvv/zxVz9fg/u//MRf/Eufe+vHv9TmEQsVU5u8T15bo4doW6wavp2JXbUxGi7hC3DHdYakHLJyTWE8DzRG6NBWqICw8QHTaG5jEwlY13WrTesqkFXTlxjEWEqCkn4MsYjQpTwFkM6SIyawV+W2e1Yqx4FBlzJjificvvPgwf2d//bfvrHz67/+6ztf/vKXXQVx3eoQ0WX8EKYaN1nPg72d+/X9V199zUGAynHUN6VxKNc5KWEmcpWD2d3fO9k72H/55eH/8Fd++TP/5P/+J3/t61//+l8trXujBvluCZPWt4nh/oSS/vWaHzUJxTtc3KvJfaVuvp9Or4IBboCgpMgf8kztU4P1e5bjZKCijSRGYc2THde1ZSliQdYqwoTvIfoibPqOrWULXhKuEzpP3U7aek2YlslEAFtX2/UQcQHEIzxKEguTKRgJq61r4hJxkXqkUC4LArbkb9c2ERicbcKUa2Adz3fefPPNjgShPwLWk14iSuzy4aR4ylg5D1fzIQjw4MGDaxYWOkXehKBF6+jqGlfVl9MyIC9nmX7/P3159x/+g3/wl/71b/3W36/apB+twXndRtGrR7ECK2E2HMX1jH67WH8+GqfOaRKz4laCI7YVbMDSIl1PA5RiuDDq+izWCosVYUnxflxdLENIuVgDq1Wy4tWPlLZiEcjVZYL191obdN31MQ6xKvpdwh5Ll76q35qEWk69ldxasJpkWys7Q/RS5IZ7Hmu3s/Pw4aOmNpLJQDmTApH1+IEf+DPtCbIsfIrkwkNl/uziZGWbTlG77lXdF0vXdX9SK0kQNzyt14zzRDI9g8Cfi5nqNnr9B+tLP1g3/5Trb6xxuJBI+NVVlkZP4zNxsRorcZiJTGRSy/m36I7JKGtVmqhOqDOUayiLHvAeTMLS8LimWDh4mOSv4Hr0WoB1MA33ZzIuL0nRJGqKm4OWwLZejzZTKx5ujM+k/Vm4yRo3rU6m1EWRo5Qi+x5IoVZuSm1VOx4/frw9Q25Keaj6pE1QDSl9IQUUYdE99Fk9UzCIFaefapODX7nvduHm0zpyFfdG7XhyfwQRCRZ6DHfL5b0caamb1H3rrjtHVP01DtHPjZOca8GvaGI6S16fGyYZs4sgoe1cb5b54JZ6SU0Xm63halykhBetllDJgqGla7Qy1ICd2tb2CFJAqN5L+iXvbWEw8rG5rAgfLnLeE402GCdClzbJAkOgagKt+VVKrKrPBw9ecYTmFrbEagxkjSAKaRvF/rIUWjCwrtVDqDLBz8N+Ac6pm8ft4WqVGPd9uzPuvxn+rATm55rCkUB3NcJuBRAH9d7LCZPDQHIv1cem3zv/lIL3VVonp6MIYBZOYlFSgzO7fQRso2kwxLhOoqi8FlaXQSObPWYXvop7jPtehSnXipWJ0AfcrhaHlEWwTshVCaraFyuVAr5Yag0RFirpmfRF94SRlqWgFl2AVrikypPLQr2yuTuU5dz81bpDCq4W4coypQhfhF0/R/Fk1RnTBB9Ji8RlS1iVslGpi7GVKI2GDLXFzkbFJPgZNp66+y72q1KjFPy15tWP57q5upEyw03eJOkpsEZxegAua/8VVUUQ0KQMLhGKGHClMVSgj8sa7Z518IDGKb6XVmcRgHAB32PFiMywNDw7fahj4aO2vGBHSqm2TPHYML5EYxKgCC39msWdgO9ez7ax7AhSlgmlXSzcTP9IRYgSkdCwOgZhUr31pz/9qapw/OQWeqt/cm+aOAldcm4ssUqAkrFmDZ/aZsGo7yS/hltjfOI2M9VYXZQ9U2vr008JUnZ6QWnRVBQwdVEF4uu9isJqz6Zn8rzPFyYzRHu7Zyb1apCIMKjJXk1fND4ajjBkYywiFEwwJQ/y7elIaqW9/LmXNmtQYvEQRAYwqzE0IEREcD/gHBZC6nUJVKKpmxYvbiGgOe4RDDIVilGAaH4K+QJccbMIHVZjVnykn3o9y7jTfrk4CdYnPvGJer7un5CDEI1wOhcOyxWQRLnCDcb6RBmx5FKw69vzMD7gT9wlljvBiHC9axyCqFtgVs4scxxB0j1pa5aa+dLPPJ4PwGuDrWr8eaIuDR1kXuel2q0Ea0SKI8loPxN8p8hBRQnCXpMz8k5mWy10tCiJzwBPBG/XbPlMctcoN/dD0vTM19L3VJeknwn71RYGikENiEXbGByEMKTn7PV03Q0yAWGciXRID+HasBLHlfPLSmKNR+q29Zq4oNdee80ZAVnWLHFidQ0M9ne/+11PkjCShIoaLiwFQqJJlZKJ+KRPiQ41XKNs9IPE8iwP0++HXkOo9M+Aa1WtqgR5QH8UbAIY49paQFfWTLvvvZwwWSI7DyV+Y7SCMoaYWbkhLTFeq/QA2vh4dZQcHKtWlTQNWFyFCSHUoCTxCAcVC5T8GbugTMI22qR7iKQT5jg+ZkCCG/QZ6pmxJhlg/U60h5Cspl/tAaMkUJg+63MB1LTb/7cgSGCFfYp22wQvy7AkVGqfxlP3xQpDg2iC5WIeP35iZWBXFdxLLJeEVXm9EJ3wclXp0IsmcO/eAc/X0b3oB9YTa8m4ykVZGFTa3FbrcX1eT1VCuGivBFk16EO3DKemgRF8vylNz0+nOJir2rrzC21JZ+ySRo0PhVvJ0hltmIWLmkWMsVQx48dyXcY9RDkhIzGrdDgZ9bzPqtwBr7E4uoYGnk6fWKP399/xREQTg7UyKSEShR3UTgk51mmWhg/znagKIdwgpNMbCGIEKRY6bPR8FmGMQGiCtegRvEVhmx4I4qzdC2VAu+G/ErTEoio+arpqwzQJYmKtB2NmzwPm3xZaAtal07JITwqzSdAv3A4sotpkpXLZcThEa58k6eV4phpgb+gEsTXguraR9GSjnTCqrMwADFJSQtIxoDbRiLVEjWjXEu0P6I2Ux98DWsnoC2voqUiIzS20qvXQGqjJefjwu63h1C2nIgFuZVl/Z7+vvxkYsNa69cwsDVd7QllAWyTdgpVyIrf6smKZ9CE8XJj94DhNDKQlSpNAJsIIAJZlgjAcfIfljhWNe01qZF4XvpTid1VoY1Xuj5I56Kj0SbZ4tFXsAEBjKWFihTL9PavKzwrh7G0kPb438nHTMD0fgH/pi29d/e9///84O9CObvK7XtHh4bWWghPIZykDbsxgAZIE41K8fr5NrL65EWEUk7TbQVjj8yOUWTUhrKSl3QKrCqcJq19zVCRrKWsEYafSEJlnVnGw6oQFhbIeEKhMHpZ1CY3VGrXTgl6TIGVRoNFheVaW2MTodWEtabZwoV+Cedv2S5J7VxuEBzoKxUIT5mvHkVhg0jxYQPDeUyeB9d1zF+pRFsxqYLXJ5WmOqPTeea9nm9W9zG+EPJ4o0ID71jUd2Mn3oGjmFftvrg1FEwxry9yuvPqhSP/ZUK6u9MKqgdoUWXvwMFRt4rw/rZ/wL2ZiXYQ1wC9RjoA3KfaE9NeBLR2+vpQ5nc5eRdncVIKkkFrAVRbq/v0HFqgItDRJLuTx47t2fXpo0IYjWYu7Nlo7nfHYulZKP9v6+hoaaN6VWS2KrfNuCs07lEUUNOHNPdXvnozTmpTeQyBuTwqldmbBQjCM7gXuQ5jOPK6sBNa1FVXbqui6ElQLUgubhNvCiscInh0FRcCon8puJpSUSKCctRfVYdfVUd52vUk4wyXaWj0njuMeLxQmLajMSlVNqiRTHVXRuyYpjKwTmJqIBrK66IBkCRAmN2A3QJBd0LJp6XWTCY1A0yQU+qwSkRIgWR25A/2t78sdKjJ6+JDNK9TX8DaenBI04a4ECb72kYrZ2McgLiJa6L+XslaGSQEERWtwOrSX/RB6pxBZjXIlp7JYeta/e2VZY3mD40iDUM8EoYgAuOhOWEVLjhoAZ/wDNTz+jpRjUUqManjDmodvS/RH3+hjKBpc6vXFnHHVmSOB8ESuSd1grbpIUbm5l3VzPX4bfB9hbCKrzbIb6Go+IgSpkeR2M6sG3Mu+iDUYN8m0aFImbSIYRWEsmiS6eOIJ5aHy2iNjJr2XGqQw6BnwCEhoBUJ4S/tWaIeCZi9KLKXs8c1YxX2qiSnjb9wRt+lBlfFuq+B7iyC0MeN6eiQxnWAkY5r8YWiTmxYmUa0pAgtS14kJHqiSc1unN5YYZRTMmH2ViK7XvKqGYXYMDsAn4o2SrTk5Rr4+R/z6srk5fbg6eaovarAM9Pzv+qBpXlRglh0+ojH6fkpsfWPX6Cg5iYWENQfTeDKbt4pA4a/ZXVfaKYCtj2pAZYnQlgm1Hz586EgkS7tzj+G/FDCA5XRft6/ZeQtSpRdikVgw2S6j+2vMoD6UVV6Ts0RvxWk1FSAJsrWpslrIyuwJxSRiHeWGWVSgPrE2brBMot21PIbIFSJT2prAQPc4PX/aWwENMw4/yB7fuPsIIe1fLV7GPmTnWDWUAMEa4WrrJW/3ctFcT6pM2faFUO+5hjd0cPSGmVcn12xNzLvLVF2UTtlI6msiOM//yaQkipKgaBCUchDpJ4ES16PXFYHo5zvvfNfgNgsaGQiiTCiLKRH28qR6P9YgJhwlIOiVdWKvg/6sMUzTHj24VgSVgVypHoud7bzAMmMiIVywDC5m3dA99EOI2AHz2qPKgtMwQhzdoYgsVY5u7VDYTj/0iPJgBVHWeKO1BCh4KlYz7pGU1Mzi6volnM3mX1VEelIC+/LCVDdyXiSSjTC1rxUB1gsYFWIKM62CGlpAA4trmZLabAm4pi3y3dUPE5WR/JRWBmsFLwlQSpD0lJDJOukZnJRBAQ9AEq6sbcJ3D1i4seZ9IFHqX0exjnQ4XoS+LO7Lbrk+V7s8EsnaMslaK+nq3MWGDZkMWQ3hvPtDItpAl9UkP2JrX+FqWwZAcXCfldZtxlcM/zNqiTCRooFHYy8BuedAEIQPixMcNZkHBLOb49+rqBbFpO8+k+WmIXghAC/J095J25bKXbLZmyzMvpFeTu3VuUlX8J63/avNzmOS5cP1epaHr6BkdXOJdCRIsjgpIU3nJTBJnOr3Kiv255KkhOSDU4Gbgf9CKSiTZf+hrQyVTSOYT340APd3ygWShhEw7w8FgCvUlqtTGH8FQNW1vBavJvLxuxW57Z2a0lC/pd2KTEV1qAwF1ppxE63B8ijtqstK4wQH+oxdeBfMUbyGFUm+UkY0vFTORdEcqFPi/uIZ3INufyge8o8YBKxc1vohhFhwnjXOexUkHNW9nqEHXihMdRGfnHTzYUzQ0h6wLO2LlDM4kHpS+GyskJRIoiI8yCzOzL1gwyMQA14HqHPtw0PWwqs2OmTcam2GI6FtCFjzJx1W2yI58se9bK7ZyVL2DNdDiwnszq2ZBBt9UpM3pfAucW3dwrmpvbIwAbYo25SGrPlMFIWVMhK80ABMPOMdYfJOLRr/+ndxLmFVdcJs8xMBpLKBXB79xzLh/nppvGEKnoMxp/oi1k7fS02VBDSv1+YaR9Xf9yRM2pygCTaFhM2AdiPdgE4iskd6sujwLDSqTHyB0ViqlKzGZ6/EWEBiXqNsFVMR0JuBYlsYmGK2VUYQAIrwXnZUjVf4Pm5utVBxF6vrMg5s3oXIk7rpJFBXLiZargmOC8VKMzayMBK0HLOhe0/UhqDG7TQe2bnXgYbZexGtSvD2fuBajiUXaq606QTDjLofG24gOKm2GDcXkpgKCdbd4T7B9EnbkEFAsZlPtUM00GWtsO4++ny96svLC1NdUHsteVrcqKbvrKxuAJWVYoCNE5qz8dvti6U11CWxNg22+vYH2jtVfuoY69hYHqVHUhn8BakYq6LPJAKxEMV1NKVmIS1oUneo7XjAHO5QURgjrCReI4wRJP1MaM5PaIBL8TI9TruHs7udhCCJ7ZC0Efrgp1gGR7c1Xie2ALM1jy58UfBVoDuBRDBpcqaaVSzgpHfCGcVNhT5Rm0+LUJVCHh+Lk6OEB6FRspnEvh4pPUK44LY0CRKkmxG4Pv9CNydhihtDwrWv5OwOkovh3jQfzLSjDwNN7VlNleG66fvqfmI2EQC0JJqSyUoBXHJFCFeIUNxILNiQb7jP5JgSIuvgHqc9pH27FPExPl2TpL3Ea0IEqJPf8zV75xN4tF5t3OkHF5d1HZb6b1dYJcXainnb6a4jybgeKVXYfVbpVIivFTrvVjChjcUa4Kfd2ncBvsm7Ne6c7806QlVJOurrMQwvFf5KZUNEkBPZJhiZMZ7iwsy5PsO+ENnCeg7lqTGs7Mh7AODVEad0YaDLhAosWiqlNbPndAjLgDr9DNA+vkOFIVzKgE01NI9gJTBETC+CCWYRYAZrIIgpI6mNs/rUJSaR/S1TlIZmoXVcS7mtmmANkNyQdM2MLveMS9Lv58Vk67PemFXXbk21iwzg7igQ18VubLhQxsd3FUwoq53iv0w0lRB3i+Z4tRO/pFnUxu+8885G7DpiM9Am/6kdW3RtEN48wv/R1kmyZ2trIuopjc43b1IJcecat+Qz2dNAfeiTtoQFa5dkn6h54/Hi3NzhwVlxG1dHFYHcqVBWLkvJRzEGRA2SdFVJVpbadTHaX4jO6O8IUorJEEpWi6zhaYhO8mi4nFRhMh+KkOagnWiThCypDRHWtk/CKwbKDJxTJlvEpOx3uZDswlKfuRR1IQcuQZaiWFgVwZVwdJWn3ZAjJe22y/4H25Z8EpZq752uE/JGHRIuZd0VAcWiVds0obJG2eAe63S8Ff6pr7Kkr1W0Z8BdgYX6fVL31rXs4hp4655mqNTWXiHdsmuIQLCSojbcE0pLmXTogrhCK2xb2ERuGnd4RAQ31ahK9NY4CUxel+j6zAuFqW6o03tskWS61ZDgBVxSymfZeH01/ynkYlHl8ExqFHgGoQZ30dFhatntYwXRfI+2ozHUImUwaoUpebbquMi+lAfL1cgNYboJ4/VFuzW5jWqb9DyFfKEVEOAkP7udxnHZaD2Mcla/aHrdIQjF9tflYbZ+jcVGoJJr1E+NUZK+xk51Ke36S5bAsrD91F7cCfN1L36fVSXD0Cdpu+xcXJeSWw2FMJEcljvPvJ+FoRPM+D7ax30OwvOs8HipvQZ82pKxSif77MpmTyANFG4oiJ9IIIOUMhHMKAV0wTOrMAVPoSXzTCfx4yyTxpXiRveVFG5NvF+htfaN3Ko/e2d9TYrLXTusl6PFQs5GZAg1Lnheb26qeSpkJgMfDEURWYB6+i6lCAYJVyW+TeG/uCa5Odh8TqXkd/DT229/x22JpZGMqt8UBHLEa4Q/1ZnBOXHtGhR9hlQMlZayjhn7RQ7610TEVl/n98BtGgPKeIjzfGDAy1umlkDwkQnAIcVyLuy6rCgAEWukBK0KrKiHDhgEE2F5YKg7+92YJMIU0nHIRyxZOKsMgt7XadqHZekUgmsy6Th10W5LCZBJSlEICtdr4s5UGtKnUxI90r/cg5+kOiLsN5lmIquZjkSCKwA2idl98/TIHbel1t8aJ9ElEiJ9X78rd5fDg1KSi1VGgNfwnyXbKt2tBY6uXAUzJoLU5/W35iFtDV/0rCDRZ5LrWVY20b8VYxTpxsk8XO0W0vLSewb4aVdhNGPLkhB0Jd6MUXrzLBK0mGkGdEpyE6Gsg5yQVw26Tjxm06rgqI5ols+JUFStkQe5tA8w3Juf6nUV7HU+jME93DndL602DsEVrO4bTgjNhEG/jjPXQGMNGjTUoSQQek00WCeClgAjE6l7sQTqQVu1w8oxfseBhYRjDTiycWkEJUvOjo5QSAlWksPJIqQfKBmuOfXlKRlehSpRrT5PkDgQxJhr0Z5n0PetwlSrNuvGddI0ZB/Z8GFOafBYOhqCa0M4Jq0hoUpHI6DqRNzK8DdDKmYg0egB4GTYZw9HX8dhelzP9f0OMvlukzS4Jsqplz68LwoBYAUL8pDFijUBN0UoJoueqsblIJ1uL9fNsqMVyDKeVKPidrJQgsUPHO0V3i4W9uRk8mpMNuy0PieBpNpSSkdpsizcauEDwOPaG4KusrT9DoacJeVE0F2tIHBfOn8zorzVMmktuRsgoOvOyYRSihveKbiCCR8zyM0BrOkQZRHHxjx1gFPnlrJgc4q1Yi3SIYROgkk0gqlHqGNVNmKuLWG4o5B7LRv+fNbpnR+pspHtmmM9whwnix4hTuASzkvtibtaLVUEPy7pWhnOAsb1Od1TmC9ZAXJts0tNUlLrSVYkahH0VAEEfCc4CGufzS9Q3lnksQUtzelFcSgRyv2nlBpjNHao+tuStbzYYngLAJ/wkpps1sxnIHBTsUwUbNnSOEKbxZSZaH1WWpgGZ/FkTO+q9UQZWEPhqgBysFCAfbuBTneoCnHf+cDGVzXqynWF4+FkgtmOUK9zBm0EA/YYzEB0GYFRyXNSNeuER5CSSonWa4z0fY0Xy4pWniyTSyWAnvqsLMl2Jm7XX6eUF5wTbJfIFwiS9EywEFYemkHPYL4Ieixe6JkoZFhwfS6BhH6HE0yFAnPc0vWMp3sxz7R/cGGTq7Vd9W1n2Tui0NVyLDqZ7yYZeyJlxVhjzyHLiQikZRE0aaQmT3kflZGoubKAoQnIzc3Zs+K31hKKTOSqH+GjsiBBbVvdK+mC2sjKWXDWrakfoSXAFVMlEBqC6BH3HZfcyugfidSu46nOk3Xtk/qt+3O+23d2ape9Wib+ac+LcVxFZ+8WA/5OkZaqIEUYD7zMSwDa7V44pfX+nt0o87aKJpzSuH97j/pgLLb6M4TsLIsnq8Aj87HFcZ7tqRVf23Erz4Q2gknqfG8X2EdS9brTEUtuTBfWjSaiYUD1qiaGcpIu1WhgqsZmwSAlE7MxKKRZ80O90eg6cP5dwLfFeY2oBLzJV0FhiH+KlQpTjWCwxV8AagZQbYbdnt3rDivvhhuZgb85qevfK4B15Fn3oZDvHdczSaAkvBImCYryYiryYwOLbFcU0nAyANxjFo7mnmmv7htBiSEhQgs5yR4LE1ykvBiKh1K2IStRYqxTXaRSI1rR+x5Iy7qayidFUHVbJY1IecBbGnfd5T07vLgyMtJ6rFgqr4fU02cnyy8XMWes6HXwjfrUBXkym83SeoiblLSVMC6g3tsnNHWNEPY5Cyk1wFVLtPXzeXHKRDaKtAC49EWPNTKNMGbPhbiTbF6malAt0ZLF+eY3v2kKJfBBwqYaLe/m2xhKqY3UakUg1qiw3Q496rFDmEj8xo3p/SgGsEFl0Qix2k8aiioB58IbZ4VqCVZrl71fnurleaa62UEWNAaY6qZ37mSXjdkWMLS7IyZbL7RwHmhRamWiQWzUri2OcTVZVx/NAmQKmLKfgL6PNckWhgQIE3pjLb3urAvk6vTf2oAzxzZQJbmG6hlkgP2c6iSCNpFp3KC0HACr62MPxwKAG1OzxOQyKbmf2iRsJOuko7kePPhmrUhh70kpvZRMfdT7slIZn8xDQPaz6opyMNFEs7jknBg+mC3XSLviKXSFRI6rgK5ELBFuCSFH0T/TjBe6OVHmIi7t1qqjrkb0shqof/a4ppG2FnJn7fow0T1p5piEu1iYmBSAl/tI+8yKs8jQZatbCD7ANZwVLhYmewWWVSwDSFdxl4RIuTElRc1ad1Spe/WR8lCAixtrd13FqB1E4A4cCHSuUffFygBwwUdMoPqfor4B5eTz1GQvVC06w6dJVTskQPsP93e+WW7uYWGoPGydayyEj2SdslswbHcomlGGuNFEW6v7XasEoighWrHCcuGzMWxSKOHHYqlRFkGF2TR/Vd5Vom5bhFmreb2RsFUsi/BStEZaJCGqVrnWwJYbDNMsvKVB3KtyEZOI2ii0tpURoy6O50TbCDpXJmeqJ27JK3/V1U78ht/J6pJYyQycwW9ZXJ1rokWFd3QwcplvnSi5pyWkWhiglSwFah+WezktOsDmviZak/ZUdUsOtbWwsUx8tTmP096c3bjGSW0FE1gBhHrwX04gyPJ29Vf3wOj4Dv53pmM86nl6flpn4n7bJb76rE/QVGK4nic+QHH2TBjLOFhoC0BaoNNmxmsqX5l4yF6yDnLPg8OkGMalrXj6bGiHeV33pVCw5rR3QXkWDtyWm/MypyB7IrLs88OA5qYrhgpPROeoz3Q5R5Htwi113rxJKQlSNMs/ZSvq9QGJncHvTiJcw5CvWEB3spB6Bw9WxqYQTxOuZCouhCXk+pwEnbLdTtbKulYbttJcdUoW1rk96pTUH5ZTsZAygk5J7LI409aslKlctIRHlQo+fbvJ3+A+LXZkH3Isva2/I+brS6pCOag5KWJLtKsxmfZwBNnKX2nc1rSU3k+wkfldrSxpIxLwagwAXtsNNBteWEngG4Bx/fGnCdPVxrXILTQGuLiQ2Z2NFRC4IRTZV2DMsRsvC9L3Xq1KNKKVfauVytquCXmntCJCSFon+2creQzuyh7YAbFES0x4cEhW2vjMEwlyC5U0mBp3gzFojXbl4Dr2f4pboJ/XI68tgmoBTzuwVI3baiyMRxZhcl139eFaEKGR7XZokqUMJHahTqxIreT6XYqjpwQKQA3mDFelPOA25vX54N1RZCojYiyCn3zeSkeDK6ZaxemFwlQXVwnKlcJpT77NwkQ1YWOTOgmeAaSlVKNBYXc2rOxUDFBsFuFQh7QxBJGP1qJhovXgM2gMrK9MNhxWIj5AvoRphFvtUyjO1jsy8UJLAF7KjdlZNiW4cV0S/K1SsycM90vNFZgRDEd6BM4mGM2YpXkpWUGDY2E6RWdVvx7OqnYa9XjZMtW/i5q08EAw8YB23ZNobE05MXbrXlcSoBQIEqW1QngOuE+yCVR+YnGxlmCoRKAT4aqWHxdfbb1ycdx7AeB1ce0cZ2Eyk9pMaCQx4SekJQOaQ2fqqxueMKapG0c79bdAciYtLi4Ck8lI5Kbidx4h35J8hAuRjAe/JWKcdA8WJklSCbOtZF/Lxfoq7HOuS8ezZokU3JXITSkRuw8HI5B0jqvKeCBMAwVs2HR9kaJyp7pe3SNrAHNyQaz2ZdWbua0VRV5dsRrXQUlZleyTHveX/iR8n+Qv4T0pI8qBsTBs7ZwzYcKhRaDpw3itUB10mbbT//Y2z3Fx+swtDPj+JkzJ/queeIAfkzjCNERefPSBAHjVUek7hMW9d6OtTD+bNU+DcYGE9uu9MmkRLCxhDsyZAjw2qGJbwph2kaWZTAPlpFzizjyQshzCH10bLkEN97Qwwrj9RHbs0ZnIj0mSMLCcXgf+6GgxTU6K3VTj7aPAFG3WpmER0kyWLJejulZStZdtFsedJbrVd2K51xSISdpems64Yu00/uzCgkdYMfFEhlMmY2va1QNbGqn0qBRMK5defnVKffmwNGLXG0C127oJesOL5CgqEr893fWLhVDapWM2mkdZw/XgmLxm39+LC6dz4n/El8A85yRt3TMJWX2PSkXSOJwSjktIm8Om657eaaSiKVsXw+4QeuecIi4rYz7LjK9/slZtVmxMhEV/j2pnFbVT2f3s8q8JO+oj7yHESiBqZUi4JJ1c4FJf6b9xpQSaVcwSoEAGxon+GEvWv6ykTtQbhddCT+Ei7Z+5nZVc7ScwEacFjiIgIDpEaOZcOV3zehKfUh6NlL5DT571c7ctwtwnOsK/GwQ2yI6ViFYy8durra2yLjUpeq8r9HCVo2Heg8glLksi1Jn/AYH6fKoY1YaQoakqiBuNf4f1zXJoJgQsAK4JC2w3K4LPboCqTnXi4LiLy3oxgdtW7x+0MLGIUaaf4jncL4V7CLHAbhf/acWJrdBUW8RKn+zW4Y36fLm3/XrKLGrplTcq9WZltD1jvOKlYBrw3iR79XkWKrzmqU56Sn0VDaJHjiazorTlnXmcDS70Vri83M9qx/K35zqN25Y6+eabKRRu6BKICE6W7mQikz2n0ac7dVJPabiOadd3YXevCVNjp9AP7mBHLjcFNkCR3NjsYhv/boujqktHR3w7AFmEW7SR9AFuBHeccuNe9aJyYW0U3+fMZLudUk1bEYSX1RoSIN1D0VUY5wQsFrRNSYj2LLzS+iXNQbuWGiwXIGZjtNk9JcA748LloWf0oCzmwMdpqL7pk5/8ZAuP9hh/t4vidLJ4lskTka7uDSAeQngtTGRjkg01llAIPW1t6V9uS/Se1yRfJrLQhXyAsxs+Nd56f8B0znUFI9kUy0VoINvteVB7kMN3IERNnhkHpAIS7RimHRCoR/J0MdNhm6lutPL4e8E3FxfKcfWREfWiBDg5QE0yhltJZfvjwXRtHfZ1CJGCQEdufc5LvSBju7qKREYuUuslUxtzLwsoYZQbbWspYRK1kEzDfm0QcXBIjXtOKd+oguQgJUjVt7PisRj72XNAtMCE+0RrspZJDWX+4h6x3L3IwoWN1I2jNPRXWFnpj/5bpOX+S5+dohvWzc9Kyy+z7DjHIyCECFWigZWhDS+VqEyuTdFSjlTY+AxRApryaqEtW0c/Pi+oAfGKr4hKhkZgt1pW3EwIy0Ao6811x/cPvsvOLNI2JiUuMLZ7a7sjPx6HBVq11Chge3P9fR4MQcNEfQLZV6qLagLSSmQCVoJKicfglMaXqq2qPrHNdVlY5wFx24ZW3RhfRxa0xiDJXyyTcqe1y1/9Xie1deprXVW8lo5MdDpuc7YfkjdTHykIJKJLor/ur/3uXt4ylXSf1VOcQg/n9XhQUhphWjFPwmYDOA2Y8QguLmFxjqcyvql/OmpBH155GrYrpsNMwhzuN9ElnVwJxHBRV1UyQ4tnQHDDzbY3/puQf/oHTmpM1ZbSwtttyaym9omqyClVSbgvVZaly+rgjFOdFuExMQvvySIo0O/imlLKe+FzhLMHVpboC4PyHaowEaK4yhQPrnXgCAsuLGU50AaQltR94VoTtUE3ZBcUKYCe+saVzopj444bjxdjJoXKNaDqpK5iD+dGDYmIZkwux9GYwSNEovagEed0KY024CXR6+SpCL063Jj0BdhD2wZnuVSK0cLnIFDj4zHbWLHmNZ0b9CHRCnslRr32frV8XhyBBG4UQePoLXozTtRgt+Wyq6T7xiV6UMU4O7GBLcPI99lzanNjFIIQRYVlTet30ySdANd9XAdmEpWFpE5DtbtlzIfxjiCy+RhuKh4BS4XL9uec+qFSM4EMzDs7JDOGsVLQMq7375W8kRkx4GpT7wIj1PTylklHGlQSdPddn/WaNWGzqDK80YDvAYN6jW2cxTKX69GgSYjUbE+i5FsRkgauliTVZ3VsJ7ttEPGlEtO6cC10ZfDEo2wPhdwGiDUBwjT105tG9EpbA38pQkC3TgCQe1NAoXFUQ9Uoudhqn7VXtT6Na3SflKccHVFApvAdnMaEMeFs+Eo5LrVCKTsxTaHr+LiK4tyenm4HOOpoU+1lpTbKvW0KKxGSEm4luDnWtd3VgnVkWfS9iXZ1ABLROMV2WGpbJx0GUK4WiyXvIZqATc+cWuqcnF7TQwdXK5neFZbPFSR97qUWYaLI+PWVa4L1pQhLDR0Xk6XbCdFJ2m5EJabBwhPtW3ELFmA2pAiIxodnUIKt1FshRSxNMFCd8LEps91iv29Qa21M0no99gK5Cj/lgWzuDCtETfWK0QCvRGBpMy4oWwxF61EKAG0vIauf6lPcDG5RQoeFsiLZOvkkJWO2BDt6bwKVTlu168tpBzkRQcV42sdK9MBkAToa7NC8vIYGttazluVEg8Fji0fo2Mc64Qm/8bg10Xv9C9dLVYceSK3xFMChrZhaNYiI77qboh0MVPJ8AM0kiGdrw9ACAdXBOTa0SJonoDbxZgJE/im875A7ApsJ6LFqdwAbbSzVk50TPyPEMehRiLiFCFIOZVxpCt2TQr5huXWd/L0GLSZFJTyy4ppAl9QyV/npa0kFdL223n7PkAKvwKaxCI3qyVMmLOI556H49AMn6VFwjw0Kcl6CU1VHLAkLJRL8ty64lY59L8K0qRXCQ5KTyZBwkCBdScVJ4vLVgLpVo1aBVmMJj+F+RpiwdPh6qjpzLQah17k1hmt02G2rAfdWMrMGP9soBjwaUzUZKxcRV8oiRbikWXY1a+nSdt1WQqfvYa2x3qxYnvIcotAZiy3MbxcVS6hgIwB/rwMFI6m2fGzGkXGPoKlkhetrrCQo4pS0YEHJbbVDwqVSYcqjWVbOams2fDX2I4FeXT+/s6WQfG/r2M1HXMJ7skzXLoKicJ0MlthXLQYM6I4mBiynoA6N5pkBCljlJgNmMftycw1lWrMnbKdqQBNuEK5J3GrTqZ+K9iuACNPtNkkwhRMEWO2iOUwIUM2ohWlOPivRaeqpoxQRVBQrCy30ezYlVWQE8A1AnnIZBCDBhT6TMcz1jOfaOiUY0d+qAjDoNpdS7T2lsjRcHHXkj7xXgUe23ssOxNmKkBJodogT495Y6KQud09YOUYgc80cOQLbdOkZEasX/jQGHBGyNZWkoqEx9zGTK1HIRHKrMdUjGDdfz/XXQruUlEQIB6NMFzZ3Ia1aBM4E5GpIbDHaQkmgZUVk5eqfmPGEyikjWd0LADUCly3+UB5ctPqY+qNxYWqlvnd2hnUMpoxVioBGOTOm2aY5G7b6/hp3WeZYqYWq8Rg4BZPMAjvBZfdhXXflsqII2UA172t+q70n9UyeCPHpiYxCLAL0jFXSe7fm5jDPKZqXBpOnAIOsBCKoPxGDeBI1cCIbEWlwIvn+UtulZm9AlFBV6RiK0LCCqfFhs3RtD7Ttc+2qRqW24G2yOYWJv0qy6vtJDuu6YYIlTqlwVB/ZYY38HTsCE1Xp8zl6A5er18KxZd+FHCcBLkV4dYAiwxs3uDHuDWojXNlswm7ekSSRWYRSr4XXsQIvHFg+k35h5bBGuFjomoylPhfez++Z/N3992X9HtR7F/X7c2TiubKzyBa/3mKZ+EA0FUyQZU+8F62OgIjYymuYZgZ3Xb0bd7laLfBcNBtfTcFaQKImGTcZPgUh78Kv9u3RvGhjg4wG6AiAd2Xx5ORIswB9cwQtPOzVPfimI5+2cC7hMFYZy5aqBCZT3M5aB5S0EIDXbqoxU6I50RgWCHFAJgx71zoJl54tXBvHZIhBsdtOrf3LRhYp/4F8HOyW8Zbbc21ZK17N6dfKtf3T+vm3q+0+EyUWKdIyEGeTHwbrxuPF0Zzghya1mWxFEGo89TNdllGdzG4dTOQUvCtTnoENcRbhRIuCLQjFw9eYUDNXk9UlqWZEy+J6qCbkNIDswb2rdIbMfn1OZOteUxkum+jJw9LALAcHUYox9e5KlGoPpQh4SpQH0JPZB14EXE8hHuNAHVJIwIkWaUu2BwoDLQHPUnJjLKdSulpTbY2l0tgVUaxNUy2Y0vJ66jr6PMIybDyCQTWm5kGRHe1K9uDy3brOO/W9x/WTwX65x3XLUt+5rWxXu9Bjog2gLQrbbRJ9aeBzzptA8fVoDKFL2QfC1PXVfaUIRyYl9wRXwOHkmgG6+PAAdYrwEZIqiKt/5LfBbgatjTOinStD4gnTPQ51PfqZPZNyP623TGoHoScyjuuI5g7YlrWTtZDA0YdQIGzsn8RqLNscn+YxclUDq1UgUJX07cixaYE23zuHJbh8jog0igvrnXkDSyWllSX6Vtz9/Yc1q+/UbR/V919WmMxSvLRlqkHW6hRn84hso7mhBrJqNFZmrMaYyln9u94Y8JzMfKdW2lqNi1vD6dUNhrcB2OZecVu6TwIEC2Jbz2ANY7AuMxkBZtIEF3S97JMA3shueLjftdZou5eEty1AlIP9FoabQ+mnTguLMa4aopD/uS/Lts/Jj7r8Fy/ph2NrwdgNY6U2i5U4CYT0Bd1fAuVdfS2sHFlS/X5cbVbVnI40fUZAbgpM/004fePxYsuUxjbZELyhwcpkueu2Eus6LSY+bLm+BxAlGYqGZncN8llyO3Jr1CoFNFKEHwtFmEpkGVCZ8N0LQLtGycd4NSHnexeQvlOA2nxKbeUDr6XNvmZXWoXblCBj3bJnedzqOmZZiRJhoKqStuaB1cZdx72xnBz3AiS4HsREkNSPCGRcYCgXLRI1JWDZHWXzqx4XXpNbnoN4sGhJ7WheSL2Az2qMLOWKYWQ8XiA8N19+b5apoqLdcm/1zGoOlnfroYaook+dTAY/d0u2mY7hahCC1ItjWRBKOilAS+nI5se7mGuiLwAvSWTd99499lvUQ6FzXOG57lsUhjYmc6pHYXXd71DuQvtfYtq3cB2QCmPPQ1Feqj0RXtf4WAhy5kpTDPquhD+YrGGB44G2gCsfBUhmr4K4aqx0L03vzTbuqey2j47V/ghyc2a4vRq49qfUHLTbU6SqclzwbGqrctITcCCR3hokQM4ar5p6Z2vnOuvA2y+N7DB/yFjmrX76cVPCXgzAtduFUiCNyTRHF1WMZQxS+IKKQs7igPnFXWWZzbokx1Nkbc3xERIcNQ6bjTXKhM4ZacFPNDruDfAqXDOYJSckkArQCUvJG/oarQCHvfMdOIRUBxvIz2kE6ovaGVY+xXlyby4ztlWh8iBPjX429soRY85ptUVYlUD3xjqBL5kk/c7RGN5svk7QvO+1b9pDnT1B1dbkMvWtnKSl1b9iuYOdU7uddiJIKCBEMTVZWvTQwnS3ZqeKYveO6ykTj0ptEhUjBEOv5sqKSQ5fXphaEtNIR3FbWqM1r2n88DFhk+lABETCh3tBmNWh5ONImYB7phRX/ZhoLiH2WDfdL0Vh4A7eS5iNprPkZ5LDKNJWC1XCO5WMWR4Nk5yVwfp83NKZUhCKJpW7stXBSq71Xvm8lVD93aLPWT0jRSDlNLuoxDqp3zlCTW0PRZCfGtcEOyJEEWfcGAp5fYOKVRkJHHJMGt/rx6v18xP1fL2ucRDBj92JAUIQrTRaT6mDLV9emGqgXCwDbmGivN92h/RTS6yVIevejbOBlAYnZjKaElMcMKoIlc+RXwrQ1wDmhAESqUMgRkCwhhNmh+MazMIizey/lMoBQv21Nqsnv6Of7NiWNkkwdFy7TusW/+SxkAQ3yRlOiAlNspm6LUKYlVcKCbww680pqa0pX8ElZccZVt0A6h9bKBIhWxm7rguXjRJDwAYvZftpqhTWcuYa77fqvv9nPQXEZaE6UETYAlfUNj9lmbTaQbm0G4/basAv6sZWZyapIh0AmzsZbiggNfzQGtqrc4TUWQw4Wxkz8OvSqJxBAlnHBAFY9dmUaYS0BCOMIGW3OH13IwKNNRAUk3g1z+dVCz7kawjS9fhR1s7Bmg/Lrw0utEuLlkIlr+jUTCub7qvfU6lo69hVexOiBz8O+M+mZI7MDCGunzCq/vocGp3fV/2Bisk+V9nNGKsRaxMlmJXOQ2NQwZGqyS2R/LnAlMxfvFxKdVe5qRlNovWaON0mTNpnwDXg0Qrbjb5LLE2kF3A2IfzasfldbchmXYPfYqLJfuesWVxMli6l0F1WRgOqTdnzkKBnf8gIIitacYeO3sTPLMGsLKYWGegngjsgM6XGa9TqeqXGLtLPTG4SxvYaGuWO1oSvzmrST2rlCidEMf5Y4qRyYLqTOkmkvK5EiWKIdNQ4cYI6Ib4EXmObE0c3V+R5oB4eBzNCr8hZSqr5Gy4vFAX4jRIcRjdzg1BZ+Hyg5c1siD57a6IXQI0wKYzU2SnbYDnZOWva1q1urkmxQehqlsfP63MD9OLu6NAaJcbFxd2yf7YGl85mwKEgAJsSrlzbllXm/QZhmlA65KiuhylX9DYrfyUonihNvMjRurYAsigHUxpaJNr17ElnCGM9fvTudpgPrnWiuFjyKIsnwxgPfJXHWFkqV3P40Lokns/Pd+L+13hrhQC5foKLdb4Q6Al2wEwEHAToqqcK/l2/eXui12YmzLJPCC83OUe/66QhaZbWtcsME3UkwopUqzFTRxOrk62X9RMfjtnAOgDIU49E2Kxrk4DFDRANgc+iYfp9E4gWHDDeyhDLMmYPI8y82u/vtibaTTRng8KAkTQGOkpDy4l0POrd2m8qgNkriuue3iCjokONk5n1ZvDJF14vwyFgoX2657opf6gOeDhhP1j04DPcN3wVYx1Fx/yOtZvARH2NVcEoqIaflE+S+olk12pT5oTUUQUewtFbILuK061lu3XD2lSeLQVt4ruclCMU4GIgyFiPRrVfyEaVmFLMnoK54VfSYSYzppQ2YmLDiTAwDLauHQIvFZxgjGzSIMHg7+xsx/exVsYx+3JtuDWqG9DqaOOagpCybMShJt4HMd7Z+UStmP3MZz6z8+CVB2Wh7u8c1/6Utt414D7RvKocH1VN0be9VRouLTiG6Hj6jRHi7yRr83csZgRJfV63m5bro9htqis26sIBjYSA9yJc14C7MSfCFuqAIChtArYgTJbY/PnehKk6V7J0eRVhOpAl6FB7o/c7FGXJ8dTOEEmwPUvMfgRpJkudnIgKHkkTP2H+zShJQpmJAfgjaAmdsTLsNaDfU3AWsz+rRxiUHHcaa8qEj3WMVfYZLLKIJaiyjq+WML3xAz/g47xeefUVDnQuHKf7aINT1Vx/5+7b3iFPLoETCJiHKBvKERYcgV9D+UwoEZrcPoVuOZN4wLqsFvuHxpqnH8AAjedUKwx8CPe0Jt2HY8qYbe7Tu+2CmSQbqyuOhN26P1N9qOvM8ZcKzJIimMZnocFNrBP+A04JgK7XQKp0mBGOdRD/FE0JoMfiTeoB4FfX6qiStAUDQrXBbCSvGipjoNZAosLZ45py3TWXR3SomRfDHDdkK+n7UJriU5lKoLSmX4Klnzmywjiqz9J9WNswc9DjEJRJa4y1zl6VTOQaaYYUljWCKmFD2XxXnw+ujeVZlSEKylwN3sVSU5mRaoPM5/r9VbjZRytik+zg9jfKef3P+Uu0gKQwFzR4bBeGIDRYbY2Du8hmXLMBPBq5antwDaA2oT5aNOafRZjcIwOca6GVDEQAK6Z6nuADIqUMQrAT2oZLDQeUqCoHKjNRsMdxE7qnoik9tYOJBEfFese9gb6XdXVBn77/6I03mk3vc+M6qmL5EXwRMECuil1OJqqcZVJRhuufxV3GeuZQwsGP62KGkQL6m9W+1FDF+o2Lw62lYgMppxbjtset9UwSqM3V1KWmlITLjk/nFsFlwTexGEOEBcjx+VihMZlZ0MmOaRLQ3D8WJhZOfE/ygHpvFUxbFgvXFJkFiyG8KeVNdWWvJ3MUGLA7CqDPKxqU1ZMgKS+ZKk0LYUeLuqe+f3VZhXXVvzfqBALl1uSa8lBbtQQppxIQ3s/e51jv4cawnEAUIEM2l0fwBu/MootkA4LTwINqAfjw+nfAiwD6cfPBbSkZSqai2lc649l4Rq5eKEwi6LQl4JaQseXo7YwLaIKLcDGh6pkkJoHoDskfHz7Vh2l4MAQH/XDsagaBzRKm0YuZXSZHUVZ9t09H2pcwaB2fBKyuJ5dzpwCyJs01Ph7TkHWpdpjDhRBMqgeiMPxd19EOKxLGasiZSExtMO8FndojgLKR89L6k3pfS5ZyeFF2OtH1dC1Fg7q+9gLPBmgw6/t9WgPrE7G8CFYsFgoMPmUfJw4xDPAGv+JWV5dKX3LiJtCBDMP1LSMZWO4Rl+d7+gDaekdwB3l6eWGyE9CgCxHrdyVQFSL3ROCWRuJFakXCsThTgB9hItMQYzmrSADTEG0BomCAqcvOfdODzQrqejLJHZHE7aX9KYMl9O9/W7tjfa73KwLFBEyko+FzYlhuqtamqfpAFlJ0gVycBE65MxOVfWKUe1z3i6vO9WJhgx9xKynNkRWKwGNNRslQWHaUY8Wu/pbA5jiPjNFwgiwZr60jrLDMQ6iF4YxW+VD7FI3TPu2AkPn2qfLXT27sG754G8K9fbs480vGR/K1sNwT5lKuACjPatvr/jk8yGpCV3c4AokpjxnWxCQSTHgOWJz7J1Xia3TaxILfnMyqOtnfQGSiV7AskVtSQssuH5tWhrXW6Q5qDys/KmIsAeJeYDqlONj/k63+YjVS+ZgURj7P2rVZ2ZvPMV6zCJMqBuq69AgBTB1VTm5iF+AcNxYwvo6PxafaGUt4Ey5fV1bye4ErVgDd3wJW+YE6NqLee/niuGdd4oSuuRENnPITFhBovwCszkp8RQDHos1iRSYslmq2RY4waCClUSlaU8ez4iSlH7VOxxMLnikeTOC2SmZsEeQyVNaq6gVFlo0RZjx6t90KAAJkY028ZXE9JMjBFSZR+x7a6Et11feKb5IwEXGx2DGTP5hEh+0gRHIx+l5OIxBGdKH/FnjovnB2CQB0vQiQF1V6YeUIZRj23I/xm2hWfyV3uERqKiT/Ro1xefCDTzUm8je3wMdsGWsS6/Gknt/2RN943JpOSUcaaNgKpYH6CYYZV6FJ55TK7IQygG6EKa4Rtzh4anV7z/I9SfQSXamjRIzRvmhssyFbOyVsAsHZhsYpEQnY5uoSteCas+AxgpCy3WASNmDF9Z2WNWI9/5GPlBcO4iAbDiIctjqlIQhMDteJIEn4IkiZRJQxgQHZ/gHhs9tcXFnw5ECKsfLpVyxo8Fi7z2/Ud/9ZWfMvVXvfrEDmU/V61TaBuXDHLmTVdg6qE3+n2vLlen+iih7t29bN1Unu5zrDfibGKQrcTMwi5KTMsHAPEQXE49TZBBeg7eMGN2H1Ha6XT6AVw/UQ4lMYr0lSSB6W3Nsgl+Vgh12KvlwhWgOQ824va7n0o2KnQyvstqXRZ6kCndRG3IQEKIJxdIQSXF5ynJie4psEpnUP9v7k5G8nlruqIRZ6dU8p7oe9TiYB5SABO5RJIt7BmoBnRa/Ca7LA+k6qDZJQJtLLTn5wcEPOtkmAgPwPNU7/oj777+qaf7n+/mw9H9RK7ePqo/d8roeORT2v+1Zzz79e4/+vq13ffWnLhOXR2WI9+f1TghKh0O+E78M7RXA2G7YB9oDQNfyc5mhyUhac62/nkBiToSnroEaAQgHICm3LfKrZFoqOMLeiuF4vJt4k1MbN8o0M+kRU8FdJQE/GnuMn1hKRCB9LoWI9R1CwcAiA69JBwx5H3F9vb+1oeUA40RO82Bq9rUn0XJeUDQqda4NTZzmX2lcK8Kiw6b/93Od++Pd+9md/9rd++qd/+tfqQ1Ug562ZD/Ws+2mPWyWcBKJO69qP3nrrrW//3M/93MvXM2ErJjzEm8GC0rAN3buR16O8WKn4a7gMN6nxyk2pxt+v58lNghcshmtDUxkkJ0G1wsIh9GxskWtnFWzIPgNIabIqHup3rFHaxqSmpj44JaQqqaHs2sKe5po0RW9JQitoyBbLEYwI8eDCoUdYjjSlO6uA6fV197dsMjZ7Qs3eUCv/tKaG4h1i7dS/uEuOcdt5Wjj0Dz7/+c9//W/8zF+XSX/75ry8l7//tP2ZBiXZwiTDz0SosSk9IePN8esMRLa8g1pAg5puaBc4DR3OghB5dkJDiNb1/GA1BkrEbDZg1RFhjVMUYTVPhpuhnITtDxNmJ3i4zrNEeBh4+qcJEH7R/cSqpz/etOuUa0rQjo6uLW7cuK2VFY8i4LIJViI0YcQRZGgS+i9r3jv2pl7K7nEqB0IqQuSSGUhxnz43RXtRGlcj1Elqh0//5z/3pTnK6r1Iz43PvlCYqgE+b04d82pTYyV9G6uEa8G3T6npoTFEBijWIqY4Jwok6sASXCe/gscYyGzFB0G6aioDpNCYlbB+VNMsDH3dhN4rx+OPtXXNJGuBxCZ0rQjJQSZyjTVGGFMEqGsxOZos8OMEBYm8MpH0d/BkCMdY27h6xiTnwkiYEBwEqzcLc71VKkHpvq6TrECEkLFOUR5Bhi5PWU9tx3rwbC339ypPL2bAz8/rjBjUMUD3tLZv4ZGVKNQxJU+mQYbd5bJgH7CQyl4TWmfAbzaaz3sY3FnwBWAfrkWlJghZNh1NiJnJ1rXNRzVgv24Vri/mjPnfDhsyltFkA+7XzTNwD1ghJmIFtEliI/zjiljNspb/hi7RhGaD02AzErucDEogw0qWjFvGMxtxEcCMtc91EiSt44y100HdCOmA/Gji9ypC870XClNFCudeVl03zsQpWhuwiin21s42rRSgxTSjvbPKV9ZNn1399/OajxZpIFOiAWubh74vck6bp9tS1SBZ89t1ZomS8V5rrge1qzcfKwUhdtoRUKVHyjXrO1QcIER6rDun4N4mqk00GeY5BzQHj1jdqj1Z9hULG1rguivqCggB/G27ZFIlW19aKW1l9E/4Mxxv32sdy9SRrXwggqaqh+POsbpOrXL3Z3v/+Q+/svvmj35hZZu/J8l6oTAVg3XlclTjAW1brBOKUu/CvSzdCslV66OJ6VxcSlFTz5SqyERd0Yq4u7g6aWuSms+zWtH6WUvWp3tbWDpKbFdsuN8ulO/pXJbieZYSDlUI2A42JjPT3gf4ZBm1sZkcZw81u9CmmC07503FJ2U1eSYZnqNY54DDWAcpzubq5QLbovoIWoFz34tCw9VKmSdT8rcx6rpHlRQyqRDmac1FYtl77EvftCvs+5Yjj+Mty8Nd0+OjVbVlp24Xjgif25ud1/tKLdytRCVF9sPX5BShaFisFxs6TJ13NsNSpyYEZu1ciL8I16QKCKMt6DUBxwKy1RZn/TUhWya8tFn8jTLu2hnFGqo0UXNmHu0abFm5+umFAPpsL0DYcEgD8dReJ/OviVYlQTbfJ0Ij+bqelhk3nMK9FRuaFtA+BBLDrjWXkuoBlpsjVn3+8KI82p1Gs6PFERo/LTvDO0w1K6uJFADVIoTaH87KVQKH8u9evvmjf/YDkaYXC1NX/mkycROTL6IumeIqcyy9FEd4KSRbqAIGJEVvYIgA8riFlKhQeTllvC610VAZ+Q8dkbA7nJLqqM7qWLBUXALBsTjJ76V8Ru9YqJv/8h0aOCdU90oWs769XtCoOeKMUgkU60XwJG+GhG3mxHAu/BHtSR+gIPQ+OKgoD5X4CkD3uSneW5IPbPf2Z9sC5162qlo7p9YsfQo/mGZjDFqB22XXPfTfByJIt1smGlb9azYWpHcNgGYhgbBGdg5JZAKrPPVECIyWMbNx/OlpFmtmbTshuwYkEQvuJ0TlCIiECUzDBAeYrhGV3EOSpxEkcE/nGFsA8n0fX2/WmjbYIhkDMskqO1kFmraBo2JZSScN4KbPs/YuHFsi47X9tlSKRgXsu9xZPfZ49m4vERa3T8LR8j35Ud1/hN59o4PQnbJyohT6b2RpSUlc/+p7/uvWdEqoAXdIFqJXfGSHjxTcc8jw8WbqsVp3PLA5HpVIRTXcqgYQ+GUTDM0v2xcC1qPJyYlpFTJ1UQh11oxpYIgiqbjUI+yzB32zcCR2bd0Slvu+lZLQfgP1Txs/RHg4cBD3Gs7JWi0Ms5Qfx91h+XR3LarQTwRK109EpgwBgpzkNlEjJ2TCZWF12BBfriwBgPqYkuB4CY+TrBENs9uL4OR3NgcDH8WlepONDYsZ/+qLz2T/37MU9Rdu5ZlqAMQ1YT7NPE94jMATmkq4ZKUiUHJ/slSxFGKJw8HoexSbcWtNAKkHLJSeSZNkCU6ikoTZw0rPahhjp57MEJPZfU3qaWEKOJeGahLqIEHAKMShqgoOL4/YgF6H6Cxqbrdj45zNN7LKRK/BL+mRHCIAN5uoUpgWWiF+Cys9S6DcxPYAHq/+nb2/h79KdBoByrzEomeMHTwkMGkFkmXq+TwvS/qkXLmqAD6Qx59qmdRALNOsxbJIN3nGJLK2S+UfrCMDS62knCYsVZW6XvgOQDfbCDMZI5hsF6Oj3zXgHKHqjU/NtiOsIQYjmKlb1oDpQAxFZ457elDtaros1off1DUtSJfF7Sj/13Xu0WCuS5GqtueR4qg9ahfhNpRHIi0qNLlflnGHh9uvs/dwocAFjkelwiD5trMSMG/5o1O+tzazG03w3ypM5gHVfiK0kxLOd3uDswOhlGrHQT1VGlm7MlbiXsahzp0thXynxvK/llJ/7QORJI31iy5UE67VdlsphaaazWlSuz11Pi6is1uBbQ0WWEs6spgwuaqEwxsRZ80Gl3QpUKcAELLgmI72/Tc8To6ASAJZYTGTZWHxYFOLFOBvwZIFFFvey6KyU5u1feGnIoR2G9WUx4+fbILP+GBVoyiQgzDqcZVZSg6mSv0X9EFAOG5OxbHt8tSGfrqEutMnLvIT3OgN7Y2HfJGdRxVV/scvfP7z//yTr7++8yM//MNv1A3uVZOP9bM+cVRjcFDtlF04q+98q4T8X7355ptf/dCFqW7mmd3cnEx5Ac6VXY1gYU4TLag8IhsjWAwW7EBk6AnT4AXLtCYP/5Gd2CbQWCMVOp9JSY35XPdaEWBdIgcFJpJ0zVMHFqYeFLl1ojgWchVy8EnpXV0L/ikrknEjwWoRpFwrqSb2akDhqHzAnQfTYNVKCIWFlXjuFI0Bs54lTKoQ1d+OHrsMiLHsAGZ357/X8qt//BM/8RP/b1nNJ1V4VxZpO5bCuljfL8tkpat1bzunpeyP/7e/9/c+fDfXwoSJb3PgjbRqTBMKR6IzSQxUcTk1aEqzBIhG6DDv4U4mTRDLEyyBFeHMlZusMgCXEDc4JJMTi4g1YZGmSEHwyxIBN0CP5Qj281m8/bnNxbRL1DGrsgYpEUE4Uqc+iynVrhTYael8ItrkzJQWivAE02jnPE70NqKuentbmo11T+lLrJ2PPutNuTTGXZL8zhtvvPG7f/tv/q3/+kFZmvd6ndvcXGvTnIEmR5dJ8SpXR1fnXhKtAVJeSbgpiwd5jR07UvwuHAGJmax8LNfgGrRthABNn32fJFBM2uxFrrYMLuoDZmwte4vjtoYoxuQMsxsc/ZKwaOFmHHobj/pxoRDf/BIc1KRXqFzQ121JOloifzc13ijGJKuR2dQwHRmDPa1A5Wnd35ZSBX+yhgpKluoBVjSLhGXfByno0aGXuVfl8r7Oc/vIHi8mLWtEq4HmmZgAWHAGdEpQBCBVy4ypXw90pjBeApWyVI5DF6Am8lojjVgvIjesIRPMUfRh3JM05RpJa7AcfL1eJvZ6/RT5RHkTt6vPD0lRnn1BCy38TrP59XpNn0R8u4d3Sen2IUDM4UR1w5eprbN0avKbcXuJdElbVTDSLjzsv9qFtSYYOjvrxZtdSHflMtDyiBWDfmSSVDd+oTDVAB/Uc2+qAcvfG+yRn4u5x8Jg7ikT1anckH+ZyAmBiUjYSYX1Xbgs9spMeUQio7DpCX3zeYCvhBGBTInH4DAwSASUHfMIHpyRl5D394RFwEG9Z4HTESIqe9lVC6xdeINdT67qz5UE0aaprUS6BlUUKiHGcsf6sEcTbQ2xq5+kXVAynzqqa7eFswCZxxLJS9QnUG5A7mVIbExWyrxb/fjA+KLvVSBvW1CgGFfbr7a2kfCU3MSqOPQXznDKBUHL5ubXhQlNiuUgHcLg5gHTLiuYojs26kqSls9tCUoLx6zrSsQ3wP467yNcMclYLFBbmdJnhRryJN64S8LDreS/dEcmuCMrIrKa0MKGwWYB3kkLQQ2w2UTwWKzWmmsMCcnRXnWwoNy/mPv6W4sVskeUA4p+WjE9LiVYDeaFpi3o0ZjvVRre5/dudXM1wbXzIBGYqQELy+x0JgGRxnHEaWqcdEkmN0AzuGkF88EWei1AONYhrK+wmM5Py6rTXDOYKiSmBj0CsrkETz7tOFv2/Lb1FIGof54Aiv/MIbUwqfnZLTebnIb2UAAVi2uQL86s83MJMFgtG+WSxUMJIkhRkOA8KY32HpCAKGl+VthJizxT+2RAL6uqaJDGbbyTjqZVu7XKVvb0fcrD+/r6bWW74eN9Aw2+QOEaAU1U0najUyZJiayAOAfmreWlWI9Zj4ebBKck5I0ABp8QWE6Eqb9sZWxI2O9b38lhyA1rEGwRf7KQFTkpmLgZ5WFds/kGZCxpHA0TLvk5aw/ZC1zXl3tq6gPLvO48siSNe8rsxjoP50qAun/W3BleYG0M+rdtfVpJoig+Pw9ca175fUnD+/zybcIE+u2HNXDZeSRr1iIw1NAQYShPtYJaDazY3mxMpcsKu0D4rcuTibRicfQeOCphfrPRxjEj6y7bbZep6+rXYKK6wUZthFKAwqAWaTgydVXuA/JVnyGBK3AfMpYjtXz4YVvoAP/kvWpXWQuAmqRjx0ipoDTgwllWZQxlAcdtkT7K7nwIU5TF9WJ930tvwl+VBl62DRb0Db5f3ZxVcUkCamCzDaA0iNOzmYwwy/pdQgQmEt80Ncku3S2QifDMClkNuJ69sa9x0uUlKz9STJdMvHjUgPJwXx7sDp31mgbdLqzH2IPeExwA7ELF6l04IH3WxGBFSSRoqXFfeSTwGtiPsH8qImKZDPMbsOsioUhyipLbV99LyinMOUEOwYkizBTwrUKoTWHDu7lgTs/mo2pMq2u9Q//7tC7v5+u3WSYJ0xZqEuKTQ5MwJDQHU006YYroMc2ZdCIS8mtWo2ZxZwWG1uvPSQH6DNUEuItQAmtnN0BvC6b18AXaveJ29lQyJuv0xmatmlOKNQA4j4tdAwXdT1l/5wQr5yhLogHIXtw23/U37qZPH2h8ZBRTr7Nt40Suuu/Tp3BOGR9cqo6IJ9q8SQybs2v2PWNg19+wsF7TCttnlmy/H+F4r9+9DYA/rAl6u57O8Wj+Uw+UCS5Nqd3qvVe4lKPm6vwSUvLURVd6r9JBHm8G03S+R0Dar2eviatxUfQzG4iS38IN9oDXj5SfUmtFO3RNxzN9VLtSMYYODh4sDGX26rZVflRt2BOXrQhOR8NwPyzRtgNdvX6xm7NFEOJtQ/vdk4OTWunsSkWtdgbBKdpze7KkmpXQBwdH3vyDBQJ2TXXdC+8TWtZ3Nzu3gXlMsVyxhMztqXHKwThgMiVq61rSZnVfbJw6ruNQH1UzvlHP70/SsjrztcJI/7Q08q9URz6hmL32QSJqrr4Vn1Id2auE4d55dVCJw/MaeAlXTW7lsZ1o2jmpAajTgsqP1ciUee/vtz7bylm16sdsD6gXSjNlu40DpPhM2uJGaEfxioUgLivJw2Rcrm6whU8jr8lQZlHX2a8Ll6Q2km/1q8/ouzrKQXIhoT/U5EohNIHlVkogL3drTKpz9WJdQ9vqxXUh3GAiHpgM+R/kvOxUfVrjoyHR0nsUxhgxg+BvlILVfZXs30xPC6A3rPVnNcC7R4cSqJNq3zeq3f9PNeHtvvlH8mNDbzfv/qu/+qu7X/nKV16vDalerYmQv6rR2Nc6Oj803vWSJuCCCRCneVXnmXtTBVsfTUa7kAbylqkeZJf5rVzTBvZbmCw/Hk7fDkFCqPhFr2u8ZUn6fVH2cEXN3Md0dE14GacLnfTuiV8fub4msa2A5j+4ryaYrxTH4/WEEkjdX3XyJWDT9oA17C9RcAmiLEm32YJta5rPup+5xKUET+MmVUMqLXB8p4XUAiptK9Et1T04++xnP/vdn//5n/9ILdNHIsEf3/TjEfh4BD4egY9H4OMR+HgEPh6B/5+NwP8HfmQsubXOO4sAAAAASUVORK5CYII=;" vertex="1" parent="1">
          <mxGeometry x="1540" y="1458.5" width="147" height="143" as="geometry" />
        </mxCell>
      </root>
    </mxGraphModel>
  </diagram>
</mxfile>
